<svg xmlns="http://www.w3.org/2000/svg" xmlns:xlink="http://www.w3.org/1999/xlink" width="500" zoomAndPan="magnify" viewBox="0 0 375 374.999991" height="500" preserveAspectRatio="xMidYMid meet" version="1.0"><defs><g/><clipPath id="aaa9fb8a7b"><path d="M 255 118 L 337.152344 118 L 337.152344 204 L 255 204 Z M 255 118 " clip-rule="nonzero"/></clipPath><clipPath id="4c538fcf00"><path d="M 37.152344 72.496094 L 271 72.496094 L 271 204 L 37.152344 204 Z M 37.152344 72.496094 " clip-rule="nonzero"/></clipPath><clipPath id="9d0fd56142"><path d="M 268 189 L 306 189 L 306 226.007812 L 268 226.007812 Z M 268 189 " clip-rule="nonzero"/></clipPath><clipPath id="e1384a59e9"><path d="M 117 189 L 155 189 L 155 226.007812 L 117 226.007812 Z M 117 189 " clip-rule="nonzero"/></clipPath></defs><g fill="#000000" fill-opacity="1"><g transform="translate(109.970332, 283.598156)"><g><path d="M 26.84375 -33.125 C 27.09375 -32.726562 27.316406 -32.191406 27.515625 -31.515625 C 27.722656 -30.835938 27.828125 -30.132812 27.828125 -29.40625 C 27.828125 -27.988281 27.523438 -26.976562 26.921875 -26.375 C 26.328125 -25.78125 25.519531 -25.484375 24.5 -25.484375 L 13.015625 -25.484375 L 13.015625 -19.296875 L 24.984375 -19.296875 C 25.273438 -18.898438 25.519531 -18.375 25.71875 -17.71875 C 25.925781 -17.0625 26.03125 -16.367188 26.03125 -15.640625 C 26.03125 -14.253906 25.726562 -13.257812 25.125 -12.65625 C 24.519531 -12.050781 23.707031 -11.75 22.6875 -11.75 L 13.125 -11.75 L 13.125 -0.21875 C 12.71875 -0.101562 12.085938 0.00390625 11.234375 0.109375 C 10.378906 0.210938 9.53125 0.265625 8.6875 0.265625 C 7.851562 0.265625 7.113281 0.203125 6.46875 0.078125 C 5.832031 -0.046875 5.296875 -0.269531 4.859375 -0.59375 C 4.421875 -0.925781 4.09375 -1.382812 3.875 -1.96875 C 3.65625 -2.550781 3.546875 -3.316406 3.546875 -4.265625 L 3.546875 -28.046875 C 3.546875 -29.609375 4 -30.84375 4.90625 -31.75 C 5.820312 -32.664062 7.066406 -33.125 8.640625 -33.125 Z M 26.84375 -33.125 "/></g></g></g><g fill="#000000" fill-opacity="1"><g transform="translate(149.935744, 283.598156)"><g><path d="M 13.0625 -10.71875 L 13.0625 -0.21875 C 12.664062 -0.101562 12.035156 0.00390625 11.171875 0.109375 C 10.316406 0.210938 9.472656 0.265625 8.640625 0.265625 C 7.796875 0.265625 7.054688 0.203125 6.421875 0.078125 C 5.785156 -0.046875 5.253906 -0.269531 4.828125 -0.59375 C 4.410156 -0.925781 4.09375 -1.382812 3.875 -1.96875 C 3.65625 -2.550781 3.546875 -3.316406 3.546875 -4.265625 L 3.546875 -30.015625 C 3.546875 -30.773438 3.753906 -31.363281 4.171875 -31.78125 C 4.597656 -32.207031 5.175781 -32.546875 5.90625 -32.796875 C 7.144531 -33.234375 8.582031 -33.550781 10.21875 -33.75 C 11.863281 -33.957031 13.613281 -34.0625 15.46875 -34.0625 C 20.5 -34.0625 24.289062 -33.003906 26.84375 -30.890625 C 29.394531 -28.773438 30.671875 -25.914062 30.671875 -22.3125 C 30.671875 -20.050781 30.085938 -18.117188 28.921875 -16.515625 C 27.753906 -14.910156 26.367188 -13.671875 24.765625 -12.796875 C 26.078125 -11.003906 27.367188 -9.320312 28.640625 -7.75 C 29.921875 -6.1875 30.925781 -4.769531 31.65625 -3.5 C 31.289062 -2.21875 30.625 -1.238281 29.65625 -0.5625 C 28.6875 0.101562 27.601562 0.4375 26.40625 0.4375 C 25.601562 0.4375 24.910156 0.34375 24.328125 0.15625 C 23.742188 -0.0195312 23.234375 -0.269531 22.796875 -0.59375 C 22.359375 -0.925781 21.957031 -1.328125 21.59375 -1.796875 C 21.226562 -2.273438 20.882812 -2.785156 20.5625 -3.328125 L 15.96875 -10.71875 Z M 16.515625 -17.984375 C 17.898438 -17.984375 18.992188 -18.335938 19.796875 -19.046875 C 20.597656 -19.765625 21 -20.816406 21 -22.203125 C 21 -23.585938 20.550781 -24.632812 19.65625 -25.34375 C 18.757812 -26.050781 17.347656 -26.40625 15.421875 -26.40625 C 14.867188 -26.40625 14.425781 -26.382812 14.09375 -26.34375 C 13.769531 -26.3125 13.410156 -26.257812 13.015625 -26.1875 L 13.015625 -17.984375 Z M 16.515625 -17.984375 "/></g></g></g><g fill="#000000" fill-opacity="1"><g transform="translate(194.165253, 283.598156)"><g><path d="M 3.546875 -28.046875 C 3.546875 -29.609375 4 -30.84375 4.90625 -31.75 C 5.820312 -32.664062 7.066406 -33.125 8.640625 -33.125 L 26.6875 -33.125 C 26.9375 -32.726562 27.160156 -32.203125 27.359375 -31.546875 C 27.554688 -30.890625 27.65625 -30.195312 27.65625 -29.46875 C 27.65625 -28.082031 27.351562 -27.097656 26.75 -26.515625 C 26.15625 -25.929688 25.367188 -25.640625 24.390625 -25.640625 L 12.84375 -25.640625 L 12.84375 -20.5625 L 25.15625 -20.5625 C 25.40625 -20.15625 25.628906 -19.632812 25.828125 -19 C 26.035156 -18.363281 26.140625 -17.679688 26.140625 -16.953125 C 26.140625 -15.566406 25.847656 -14.582031 25.265625 -14 C 24.679688 -13.414062 23.894531 -13.125 22.90625 -13.125 L 12.84375 -13.125 L 12.84375 -7.375 L 26.90625 -7.375 C 27.15625 -6.976562 27.378906 -6.453125 27.578125 -5.796875 C 27.773438 -5.140625 27.875 -4.445312 27.875 -3.71875 C 27.875 -2.332031 27.570312 -1.335938 26.96875 -0.734375 C 26.375 -0.140625 25.585938 0.15625 24.609375 0.15625 L 8.640625 0.15625 C 7.066406 0.15625 5.820312 -0.296875 4.90625 -1.203125 C 4 -2.109375 3.546875 -3.347656 3.546875 -4.921875 Z M 3.546875 -28.046875 "/></g></g></g><g fill="#000000" fill-opacity="1"><g transform="translate(235.060011, 283.598156)"><g><path d="M 3.546875 -28.046875 C 3.546875 -29.609375 4 -30.84375 4.90625 -31.75 C 5.820312 -32.664062 7.066406 -33.125 8.640625 -33.125 L 26.6875 -33.125 C 26.9375 -32.726562 27.160156 -32.203125 27.359375 -31.546875 C 27.554688 -30.890625 27.65625 -30.195312 27.65625 -29.46875 C 27.65625 -28.082031 27.351562 -27.097656 26.75 -26.515625 C 26.15625 -25.929688 25.367188 -25.640625 24.390625 -25.640625 L 12.84375 -25.640625 L 12.84375 -20.5625 L 25.15625 -20.5625 C 25.40625 -20.15625 25.628906 -19.632812 25.828125 -19 C 26.035156 -18.363281 26.140625 -17.679688 26.140625 -16.953125 C 26.140625 -15.566406 25.847656 -14.582031 25.265625 -14 C 24.679688 -13.414062 23.894531 -13.125 22.90625 -13.125 L 12.84375 -13.125 L 12.84375 -7.375 L 26.90625 -7.375 C 27.15625 -6.976562 27.378906 -6.453125 27.578125 -5.796875 C 27.773438 -5.140625 27.875 -4.445312 27.875 -3.71875 C 27.875 -2.332031 27.570312 -1.335938 26.96875 -0.734375 C 26.375 -0.140625 25.585938 0.15625 24.609375 0.15625 L 8.640625 0.15625 C 7.066406 0.15625 5.820312 -0.296875 4.90625 -1.203125 C 4 -2.109375 3.546875 -3.347656 3.546875 -4.921875 Z M 3.546875 -28.046875 "/></g></g></g><g clip-path="url(#aaa9fb8a7b)"><path fill="#4caf50" d="M 281.953125 151.964844 L 286.339844 128.070312 L 303.21875 128.070312 L 317.011719 151.964844 Z M 311.175781 118.378906 L 270.804688 118.378906 L 255.105469 203.886719 L 261.785156 203.886719 C 265.761719 191.328125 278.347656 181.605469 291.394531 181.605469 C 298.53125 181.605469 304.785156 184.402344 309.027344 189.488281 C 312.363281 193.488281 314.097656 198.484375 314.117188 203.886719 L 329.316406 203.886719 L 337.390625 159.90625 L 311.175781 118.378906 " fill-opacity="1" fill-rule="nonzero"/></g><g clip-path="url(#4c538fcf00)"><path fill="#4caf50" d="M 137.699219 72.265625 C 130.675781 72.265625 124.300781 75.457031 120.0625 80.566406 L 61.683594 80.566406 C 58.78125 80.566406 56.421875 82.921875 56.421875 85.828125 C 56.421875 88.734375 58.78125 91.085938 61.683594 91.085938 L 143.433594 91.085938 L 143.433594 91.042969 L 174.496094 91.042969 C 177.328125 91.042969 179.800781 93.363281 179.722656 96.195312 C 179.683594 97.527344 179.128906 98.726562 178.253906 99.609375 C 177.339844 100.511719 176.089844 101.078125 174.703125 101.078125 L 43.015625 101.078125 C 40.476562 101.078125 38.300781 102.890625 37.84375 105.386719 C 37.25 108.621094 39.730469 111.601562 43.015625 111.601562 L 157.628906 111.601562 C 160.46875 111.601562 162.941406 113.921875 162.867188 116.753906 C 162.832031 118.089844 162.277344 119.289062 161.398438 120.171875 C 160.488281 121.078125 159.234375 121.640625 157.847656 121.640625 L 72.6875 121.640625 C 70.003906 121.640625 67.699219 123.558594 67.210938 126.203125 C 66.582031 129.621094 69.210938 132.777344 72.6875 132.777344 L 178.972656 132.777344 C 181.808594 132.777344 184.285156 135.097656 184.210938 137.933594 C 184.175781 139.265625 183.617188 140.46875 182.742188 141.347656 C 181.832031 142.253906 180.578125 142.816406 179.191406 142.816406 L 84.703125 142.816406 C 82.417969 142.816406 80.457031 144.449219 80.046875 146.699219 C 79.511719 149.605469 81.746094 152.285156 84.703125 152.285156 L 125.269531 152.285156 C 130.722656 152.285156 135.152344 154.535156 135.152344 157.304688 C 135.152344 158.691406 134.046875 159.945312 132.257812 160.851562 C 130.464844 161.765625 127.992188 162.320312 125.269531 162.320312 C 111.832031 162.320312 100.3125 171.914062 97.882812 185.132812 L 94.441406 203.886719 L 110.457031 203.886719 C 114.441406 191.320312 127.019531 181.605469 140.066406 181.605469 C 147.203125 181.605469 153.457031 184.402344 157.699219 189.488281 C 161.035156 193.488281 162.769531 198.484375 162.785156 203.886719 L 246.664062 203.886719 L 270.839844 72.265625 L 137.699219 72.265625 " fill-opacity="1" fill-rule="nonzero"/></g><g clip-path="url(#9d0fd56142)"><path fill="#4caf50" d="M 291.394531 189.902344 C 282.699219 189.902344 274.265625 195.835938 270.640625 203.886719 C 270.035156 205.214844 269.570312 206.601562 269.246094 208.035156 C 269.195312 208.285156 269.144531 208.535156 269.09375 208.78125 C 268.882812 209.945312 268.78125 211.082031 268.789062 212.183594 C 268.804688 215.644531 269.882812 218.789062 271.941406 221.261719 C 274.582031 224.425781 278.582031 226.167969 283.203125 226.167969 C 291.898438 226.167969 300.332031 220.222656 303.957031 212.183594 C 304.566406 210.855469 305.027344 209.460938 305.351562 208.035156 L 305.5 207.289062 C 305.71875 206.125 305.816406 204.988281 305.808594 203.886719 C 305.792969 200.417969 304.710938 197.273438 302.65625 194.800781 C 300.015625 191.636719 296.015625 189.902344 291.394531 189.902344 " fill-opacity="1" fill-rule="nonzero"/></g><g clip-path="url(#e1384a59e9)"><path fill="#4caf50" d="M 140.066406 189.902344 C 131.367188 189.902344 122.9375 195.835938 119.3125 203.886719 C 118.703125 205.214844 118.242188 206.601562 117.917969 208.035156 C 117.867188 208.285156 117.816406 208.535156 117.765625 208.78125 C 117.550781 209.945312 117.453125 211.082031 117.460938 212.183594 C 117.476562 215.644531 118.558594 218.789062 120.613281 221.261719 C 123.253906 224.425781 127.253906 226.167969 131.875 226.167969 C 140.570312 226.167969 149.003906 220.222656 152.628906 212.183594 C 153.234375 210.855469 153.699219 209.460938 154.023438 208.035156 L 154.171875 207.289062 C 154.386719 206.125 154.488281 204.988281 154.480469 203.886719 C 154.460938 200.417969 153.382812 197.273438 151.324219 194.800781 C 148.6875 191.636719 144.6875 189.902344 140.066406 189.902344 " fill-opacity="1" fill-rule="nonzero"/></g></svg>