<svg xmlns="http://www.w3.org/2000/svg" xmlns:xlink="http://www.w3.org/1999/xlink" width="500" zoomAndPan="magnify" viewBox="0 0 375 374.999991" height="500" preserveAspectRatio="xMidYMid meet" version="1.0"><defs><clipPath id="1e89c98b3d"><path d="M 91 214 L 284 214 L 284 300.695312 L 91 300.695312 Z M 91 214 " clip-rule="nonzero"/></clipPath></defs><path fill="#4caf50" d="M 257.664062 132.15625 C 257.128906 130.210938 255.808594 128.609375 253.949219 127.632812 C 254.355469 123.246094 253.753906 117.871094 252.730469 113.449219 C 251.863281 109.808594 250.492188 105.738281 248.402344 101.5 C 246.191406 97.308594 243.46875 92.847656 239.644531 88.742188 C 236.015625 84.492188 231.335938 80.617188 226.054688 77.207031 C 180.003906 47.996094 116.421875 82.546875 121.355469 127.644531 C 119.511719 128.625 118.203125 130.210938 117.667969 132.140625 C 106.769531 132.335938 98.007812 140.4375 98.007812 150.445312 C 98.007812 160.453125 106.769531 168.566406 117.667969 168.761719 C 118.535156 171.914062 121.515625 174.308594 125.242188 174.308594 C 129.652344 174.308594 133.207031 171.046875 133.207031 167.011719 L 133.207031 133.902344 C 133.207031 131.605469 131.988281 129.636719 130.191406 128.304688 C 132.183594 116.90625 138.109375 104.859375 146.417969 97.382812 C 158.609375 85.492188 179.773438 78.625 203.035156 83.804688 C 211.992188 86.46875 220.800781 90.953125 228.144531 98.136719 C 236.320312 105.480469 242.953125 116.492188 245.117188 128.304688 C 240.414062 131.800781 242.097656 134.816406 242.097656 167.011719 C 242.097656 169.53125 243.589844 171.644531 245.703125 172.953125 L 245.703125 175.761719 C 245.703125 177.535156 245.203125 179.28125 244.238281 180.785156 C 233.828125 197.007812 233.144531 198.660156 217.417969 203.691406 C 212.46875 205.269531 206.886719 205.953125 201.242188 207.335938 C 196.035156 202.191406 186.859375 205.574219 186.859375 212.453125 C 186.859375 221.140625 200.421875 223.132812 203.050781 214.445312 C 206.859375 213.515625 210.785156 212.964844 214.472656 211.84375 C 234.753906 205.671875 241.390625 202.007812 252.128906 181.515625 C 253.144531 179.574219 253.683594 177.421875 253.683594 175.238281 L 253.683594 173.429688 C 255.6875 172.476562 257.101562 170.800781 257.664062 168.75 C 268.550781 168.554688 277.300781 160.453125 277.300781 150.445312 C 277.300781 140.449219 268.550781 132.363281 257.664062 132.15625 " fill-opacity="1" fill-rule="nonzero"/><g clip-path="url(#1e89c98b3d)"><path fill="#4caf50" d="M 187.679688 250.527344 C 194.191406 241.386719 199.859375 233.53125 205.417969 225.601562 C 211.933594 216.300781 218.492188 213.296875 228.78125 216.765625 C 241.855469 221.175781 254.792969 226.113281 267.453125 231.625 C 278.3125 236.351562 284.410156 244.808594 283.738281 257.34375 C 283.398438 263.515625 283.738281 269.707031 283.652344 275.890625 C 283.433594 292.921875 275.675781 300.851562 258.800781 300.9375 C 237.015625 301.074219 215.230469 300.988281 193.445312 300.988281 C 168.128906 300.988281 142.800781 301.050781 117.496094 300.953125 C 99.386719 300.867188 91.75 293.132812 91.652344 275.121094 C 91.617188 269.230469 91.949219 263.332031 91.582031 257.464844 C 90.773438 244.417969 97.496094 236.035156 108.578125 231.246094 C 121.246094 225.773438 134.246094 221.019531 147.34375 216.679688 C 158.511719 212.964844 161.972656 214.628906 168.886719 224.316406 C 174.835938 232.664062 180.835938 240.984375 187.679688 250.527344 " fill-opacity="1" fill-rule="nonzero"/></g><path fill="#4caf50" d="M 233.828125 141.808594 C 232.628906 157.175781 227.777344 176.8125 211.664062 191.9375 C 198.003906 204.757812 177.160156 205.074219 163.71875 191.953125 C 145.097656 173.757812 139.21875 150.628906 142.105469 125.65625 C 143.605469 112.59375 151.574219 102.304688 164.953125 97.929688 C 184.84375 91.417969 204.113281 90.769531 221.621094 104.6875 C 231.847656 112.800781 234.179688 123.945312 233.828125 141.808594 " fill-opacity="1" fill-rule="nonzero"/></svg>