<svg xmlns="http://www.w3.org/2000/svg" xmlns:xlink="http://www.w3.org/1999/xlink" width="500" zoomAndPan="magnify" viewBox="0 0 375 374.999991" height="500" preserveAspectRatio="xMidYMid meet" version="1.0"><defs><clipPath id="8cf7caeb4f"><path d="M 162 78 L 283.984375 78 L 283.984375 195 L 162 195 Z M 162 78 " clip-rule="nonzero"/></clipPath><clipPath id="2d2df5e0e4"><path d="M 91.234375 180 L 213 180 L 213 297 L 91.234375 297 Z M 91.234375 180 " clip-rule="nonzero"/></clipPath></defs><g clip-path="url(#8cf7caeb4f)"><path fill="#4caf50" d="M 193.128906 91.222656 L 193.128906 83.582031 C 193.128906 79.785156 188.871094 77.496094 185.714844 79.625 L 164.6875 93.742188 C 161.871094 95.617188 161.871094 99.757812 164.6875 101.660156 L 185.714844 115.777344 C 188.871094 117.90625 193.128906 115.640625 193.128906 111.816406 L 193.128906 104.679688 C 236.238281 107.652344 270.421875 143.578125 270.421875 187.441406 C 270.421875 191.125 273.421875 194.101562 277.082031 194.101562 C 280.765625 194.101562 283.742188 191.101562 283.742188 187.441406 C 283.761719 136.210938 243.605469 94.222656 193.128906 91.222656 Z M 193.128906 91.222656 " fill-opacity="1" fill-rule="nonzero"/></g><g clip-path="url(#2d2df5e0e4)"><path fill="#4caf50" d="M 210.289062 273.339844 L 189.261719 259.222656 C 186.105469 257.09375 181.847656 259.359375 181.847656 263.179688 L 181.847656 270.34375 C 138.738281 267.367188 104.554688 231.445312 104.554688 187.578125 C 104.554688 183.894531 101.554688 180.921875 97.894531 180.921875 C 94.234375 180.921875 91.234375 183.917969 91.234375 187.578125 C 91.234375 238.789062 131.394531 280.777344 181.871094 283.773438 L 181.871094 291.417969 C 181.871094 295.214844 186.125 297.503906 189.285156 295.375 L 210.3125 281.257812 C 213.105469 279.382812 213.105469 275.238281 210.289062 273.339844 Z M 210.289062 273.339844 " fill-opacity="1" fill-rule="nonzero"/></g><path fill="#4caf50" d="M 187.476562 125.9375 C 153.472656 125.9375 125.902344 153.507812 125.902344 187.511719 C 125.902344 221.511719 153.472656 249.085938 187.476562 249.085938 C 221.480469 249.085938 249.050781 221.511719 249.050781 187.511719 C 249.050781 153.507812 221.480469 125.9375 187.476562 125.9375 Z M 193.035156 216.296875 L 193.035156 222.863281 C 193.035156 224.007812 192.097656 224.945312 190.953125 224.945312 L 184 224.945312 C 182.855469 224.945312 181.917969 224.007812 181.917969 222.863281 L 181.917969 216.523438 C 174.777344 215.769531 169.078125 210.09375 168.371094 202.957031 C 168.324219 202.382812 168.507812 201.859375 168.875 201.421875 C 169.285156 200.988281 169.859375 200.714844 170.453125 200.714844 L 177.5 200.714844 C 178.460938 200.714844 179.308594 201.378906 179.515625 202.292969 C 179.925781 204.191406 181.617188 205.542969 183.5625 205.542969 L 189.71875 205.542969 C 193.105469 205.542969 196.035156 203.09375 196.332031 199.957031 C 196.515625 198.171875 195.964844 196.457031 194.753906 195.109375 C 193.5625 193.804688 191.871094 193.046875 190.109375 193.046875 L 185.578125 193.046875 C 176.332031 193.046875 168.417969 186.183594 167.546875 177.421875 C 166.652344 168.335938 172.945312 160.097656 181.917969 158.566406 L 181.917969 152.136719 C 181.917969 150.992188 182.855469 150.054688 184 150.054688 L 190.953125 150.054688 C 192.097656 150.054688 193.035156 150.992188 193.035156 152.136719 L 193.035156 158.472656 C 200.199219 159.230469 205.875 164.902344 206.582031 172.042969 C 206.652344 172.59375 206.46875 173.140625 206.078125 173.574219 C 205.667969 174.011719 205.09375 174.285156 204.5 174.285156 L 197.453125 174.285156 C 196.492188 174.285156 195.644531 173.621094 195.441406 172.730469 C 195.027344 170.851562 193.335938 169.480469 191.414062 169.480469 L 185.257812 169.480469 C 181.871094 169.480469 178.964844 171.929688 178.644531 175.0625 C 178.460938 176.847656 179.011719 178.5625 180.222656 179.890625 C 181.414062 181.195312 183.105469 181.949219 184.867188 181.949219 L 190.152344 181.949219 C 195.027344 181.949219 199.71875 184.03125 203.011719 187.671875 C 206.355469 191.355469 207.910156 196.113281 207.429688 201.058594 C 206.675781 208.515625 200.769531 214.761719 193.035156 216.296875 Z M 193.035156 216.296875 " fill-opacity="1" fill-rule="nonzero"/></svg>