<svg xmlns="http://www.w3.org/2000/svg" xmlns:xlink="http://www.w3.org/1999/xlink" width="500" zoomAndPan="magnify" viewBox="0 0 375 374.999991" height="500" preserveAspectRatio="xMidYMid meet" version="1.0"><defs><clipPath id="5f3a5a6c06"><path d="M 8.105469 31.652344 L 366.605469 31.652344 L 366.605469 277 L 8.105469 277 Z M 8.105469 31.652344 " clip-rule="nonzero"/></clipPath><clipPath id="c07b15bc0f"><path d="M 34 283 L 95 283 L 95 343.652344 L 34 343.652344 Z M 34 283 " clip-rule="nonzero"/></clipPath><clipPath id="5efeaf94a7"><path d="M 197 283 L 258 283 L 258 343.652344 L 197 343.652344 Z M 197 283 " clip-rule="nonzero"/></clipPath></defs><g clip-path="url(#5f3a5a6c06)"><path fill="#ffffff" d="M 218.238281 204.453125 L 227.734375 162.234375 L 258.140625 162.234375 L 241.960938 204.453125 Z M 161.882812 146.472656 L 161.882812 104.253906 L 224.625 104.253906 L 215.128906 146.472656 Z M 161.882812 162.234375 L 211.582031 162.234375 L 202.082031 204.453125 L 161.882812 204.453125 Z M 96.417969 162.234375 L 146.121094 162.234375 L 146.121094 204.453125 L 105.917969 204.453125 Z M 83.378906 104.253906 L 146.121094 104.253906 L 146.121094 146.472656 L 92.871094 146.472656 Z M 76.722656 146.472656 L 43.585938 146.472656 L 27.441406 104.253906 L 67.226562 104.253906 Z M 65.753906 204.453125 L 49.613281 162.234375 L 80.269531 162.234375 L 89.761719 204.453125 Z M 264.171875 146.472656 L 231.28125 146.472656 L 240.773438 104.253906 L 280.351562 104.253906 Z M 359.058594 32.015625 L 313.726562 31.71875 C 313.410156 31.714844 313.089844 31.730469 312.777344 31.757812 C 312.761719 31.761719 312.746094 31.761719 312.726562 31.765625 C 312.492188 31.789062 312.261719 31.828125 312.035156 31.871094 C 311.992188 31.878906 311.953125 31.886719 311.914062 31.894531 C 311.710938 31.9375 311.503906 31.988281 311.308594 32.050781 C 311.25 32.066406 311.199219 32.082031 311.148438 32.101562 C 310.957031 32.160156 310.773438 32.230469 310.589844 32.300781 C 310.539062 32.324219 310.480469 32.347656 310.429688 32.371094 C 310.246094 32.445312 310.066406 32.535156 309.890625 32.625 C 309.847656 32.652344 309.800781 32.671875 309.757812 32.699219 C 309.574219 32.800781 309.390625 32.910156 309.214844 33.027344 C 309.191406 33.046875 309.160156 33.0625 309.132812 33.078125 C 308.945312 33.207031 308.761719 33.34375 308.582031 33.492188 C 308.574219 33.5 308.5625 33.507812 308.546875 33.519531 C 308.363281 33.671875 308.183594 33.832031 308.011719 34.003906 C 308.011719 34.007812 308.003906 34.011719 308 34.011719 C 307.824219 34.1875 307.660156 34.367188 307.503906 34.558594 C 307.5 34.5625 307.496094 34.566406 307.492188 34.574219 C 307.339844 34.757812 307.191406 34.949219 307.058594 35.144531 C 307.046875 35.164062 307.039062 35.179688 307.027344 35.191406 C 306.902344 35.382812 306.78125 35.574219 306.671875 35.769531 C 306.652344 35.804688 306.636719 35.84375 306.617188 35.878906 C 306.515625 36.0625 306.421875 36.25 306.34375 36.441406 C 306.316406 36.492188 306.300781 36.542969 306.277344 36.59375 C 306.253906 36.660156 306.226562 36.71875 306.199219 36.78125 L 286.386719 88.492188 L 16.023438 88.492188 C 15.746094 88.492188 15.472656 88.507812 15.195312 88.53125 C 15.191406 88.53125 15.191406 88.53125 15.191406 88.53125 C 14.945312 88.5625 14.699219 88.597656 14.453125 88.648438 C 14.429688 88.652344 14.40625 88.65625 14.382812 88.660156 C 14.167969 88.707031 13.957031 88.757812 13.742188 88.824219 C 13.695312 88.839844 13.644531 88.851562 13.597656 88.871094 C 13.457031 88.914062 13.320312 88.960938 13.179688 89.015625 C 13.128906 89.03125 13.082031 89.054688 13.03125 89.074219 C 12.972656 89.101562 12.917969 89.121094 12.863281 89.144531 C 12.671875 89.226562 12.488281 89.316406 12.308594 89.414062 C 12.269531 89.433594 12.230469 89.453125 12.191406 89.472656 C 11.996094 89.585938 11.800781 89.699219 11.617188 89.824219 C 11.601562 89.832031 11.585938 89.84375 11.566406 89.859375 C 11.367188 89.992188 11.171875 90.136719 10.988281 90.285156 C 10.984375 90.289062 10.980469 90.292969 10.976562 90.296875 C 10.785156 90.457031 10.601562 90.625 10.429688 90.800781 C 10.425781 90.800781 10.421875 90.804688 10.417969 90.808594 C 10.246094 90.980469 10.082031 91.160156 9.929688 91.347656 C 9.921875 91.359375 9.90625 91.367188 9.898438 91.378906 C 9.753906 91.558594 9.617188 91.742188 9.488281 91.933594 C 9.46875 91.960938 9.449219 91.988281 9.433594 92.019531 C 9.3125 92.191406 9.203125 92.371094 9.105469 92.5625 C 9.078125 92.605469 9.050781 92.648438 9.03125 92.6875 C 8.9375 92.867188 8.851562 93.046875 8.769531 93.234375 C 8.75 93.285156 8.722656 93.339844 8.703125 93.394531 C 8.628906 93.578125 8.5625 93.761719 8.496094 93.957031 C 8.484375 94.007812 8.464844 94.058594 8.449219 94.109375 C 8.390625 94.3125 8.339844 94.515625 8.292969 94.726562 C 8.28125 94.761719 8.273438 94.800781 8.269531 94.835938 C 8.222656 95.070312 8.183594 95.308594 8.164062 95.542969 C 8.160156 95.554688 8.160156 95.570312 8.15625 95.589844 C 8.101562 96.109375 8.101562 96.640625 8.160156 97.171875 C 8.160156 97.175781 8.160156 97.179688 8.160156 97.183594 C 8.183594 97.421875 8.21875 97.667969 8.269531 97.910156 C 8.273438 97.9375 8.277344 97.960938 8.28125 97.992188 C 8.328125 98.203125 8.386719 98.410156 8.445312 98.621094 C 8.460938 98.671875 8.476562 98.722656 8.492188 98.769531 C 8.535156 98.910156 8.582031 99.046875 8.636719 99.1875 L 52.96875 215.144531 C 52.988281 215.183594 53.003906 215.21875 53.023438 215.257812 C 53.058594 215.359375 53.101562 215.457031 53.148438 215.554688 C 53.207031 215.683594 53.265625 215.808594 53.328125 215.929688 C 53.367188 216.007812 53.40625 216.085938 53.453125 216.167969 C 53.550781 216.347656 53.660156 216.523438 53.769531 216.695312 C 53.78125 216.707031 53.792969 216.726562 53.804688 216.746094 C 53.941406 216.945312 54.085938 217.140625 54.242188 217.332031 C 54.257812 217.347656 54.273438 217.363281 54.289062 217.382812 C 54.425781 217.542969 54.566406 217.703125 54.714844 217.851562 C 54.75 217.886719 54.785156 217.921875 54.816406 217.957031 C 54.960938 218.09375 55.101562 218.21875 55.25 218.347656 C 55.285156 218.378906 55.324219 218.410156 55.355469 218.4375 C 55.539062 218.589844 55.730469 218.730469 55.921875 218.863281 C 55.9375 218.871094 55.957031 218.878906 55.96875 218.890625 C 56.140625 219.003906 56.316406 219.109375 56.496094 219.207031 C 56.570312 219.253906 56.652344 219.292969 56.734375 219.335938 C 56.855469 219.394531 56.976562 219.457031 57.105469 219.515625 C 57.195312 219.554688 57.285156 219.59375 57.375 219.632812 C 57.519531 219.691406 57.671875 219.742188 57.824219 219.792969 C 57.902344 219.820312 57.972656 219.851562 58.054688 219.871094 C 58.257812 219.933594 58.460938 219.988281 58.667969 220.03125 C 58.738281 220.046875 58.808594 220.058594 58.882812 220.070312 C 59.058594 220.105469 59.238281 220.132812 59.425781 220.152344 C 59.480469 220.160156 59.535156 220.167969 59.589844 220.175781 C 59.839844 220.195312 60.082031 220.214844 60.335938 220.214844 C 60.347656 220.214844 60.363281 220.207031 60.382812 220.207031 L 235.921875 220.207031 L 220.429688 260.640625 L 61.65625 260.929688 C 57.304688 260.9375 53.78125 264.472656 53.792969 268.824219 C 53.800781 273.167969 57.324219 276.6875 61.667969 276.6875 C 61.671875 276.6875 61.679688 276.6875 61.683594 276.6875 L 225.804688 276.390625 C 225.824219 276.390625 225.835938 276.390625 225.855469 276.390625 C 226.105469 276.390625 226.359375 276.375 226.605469 276.355469 C 226.660156 276.34375 226.722656 276.339844 226.777344 276.332031 C 226.957031 276.3125 227.140625 276.285156 227.320312 276.25 C 227.390625 276.238281 227.457031 276.226562 227.527344 276.207031 C 227.742188 276.160156 227.960938 276.105469 228.171875 276.042969 C 228.25 276.019531 228.316406 275.992188 228.390625 275.964844 C 228.535156 275.917969 228.675781 275.867188 228.816406 275.8125 C 228.90625 275.773438 229 275.734375 229.089844 275.691406 C 229.214844 275.636719 229.339844 275.574219 229.457031 275.511719 C 229.539062 275.46875 229.621094 275.429688 229.699219 275.386719 C 229.890625 275.277344 230.082031 275.164062 230.265625 275.042969 C 230.269531 275.035156 230.277344 275.03125 230.28125 275.03125 C 230.472656 274.902344 230.652344 274.761719 230.832031 274.613281 C 230.875 274.582031 230.914062 274.550781 230.953125 274.515625 C 231.097656 274.390625 231.238281 274.261719 231.375 274.128906 C 231.410156 274.097656 231.441406 274.0625 231.476562 274.027344 C 231.632812 273.875 231.777344 273.710938 231.914062 273.542969 C 231.925781 273.53125 231.9375 273.519531 231.953125 273.5 C 232.101562 273.316406 232.246094 273.121094 232.382812 272.917969 C 232.40625 272.890625 232.421875 272.859375 232.441406 272.835938 C 232.542969 272.675781 232.644531 272.507812 232.738281 272.34375 C 232.78125 272.261719 232.824219 272.179688 232.863281 272.097656 C 232.921875 271.980469 232.984375 271.859375 233.039062 271.734375 C 233.085938 271.632812 233.128906 271.535156 233.167969 271.4375 C 233.183594 271.398438 233.195312 271.367188 233.210938 271.328125 L 254.046875 216.945312 C 254.445312 216.398438 254.777344 215.800781 255.03125 215.144531 L 299.367188 99.1875 C 299.417969 99.046875 299.464844 98.910156 299.511719 98.769531 C 299.523438 98.722656 299.542969 98.671875 299.554688 98.621094 C 299.617188 98.410156 299.675781 98.203125 299.71875 97.992188 C 299.722656 97.960938 299.726562 97.9375 299.734375 97.910156 C 299.753906 97.789062 299.777344 97.660156 299.796875 97.535156 L 318.960938 47.515625 L 358.953125 47.773438 C 358.972656 47.773438 358.988281 47.773438 359.003906 47.773438 C 363.332031 47.773438 366.859375 44.28125 366.882812 39.949219 C 366.914062 35.59375 363.40625 32.046875 359.058594 32.015625 " fill-opacity="1" fill-rule="nonzero"/></g><g clip-path="url(#c07b15bc0f)"><path fill="#ffffff" d="M 67.136719 327.144531 C 59.40625 328.648438 51.894531 323.589844 50.382812 315.863281 C 49.65625 312.117188 50.425781 308.3125 52.554688 305.148438 C 54.691406 301.984375 57.921875 299.84375 61.667969 299.109375 C 62.589844 298.929688 63.503906 298.84375 64.40625 298.84375 C 71.097656 298.84375 77.089844 303.585938 78.417969 310.394531 C 79.925781 318.121094 74.863281 325.636719 67.136719 327.144531 Z M 58.648438 283.644531 C 50.777344 285.179688 43.972656 289.691406 39.488281 296.347656 C 35.003906 303.003906 33.382812 311.003906 34.917969 318.878906 C 37.714844 333.203125 50.316406 343.167969 64.394531 343.167969 C 66.292969 343.167969 68.222656 342.988281 70.15625 342.609375 C 86.410156 339.441406 97.054688 323.632812 93.886719 307.378906 C 90.710938 291.121094 74.910156 280.476562 58.648438 283.644531 " fill-opacity="1" fill-rule="nonzero"/></g><g clip-path="url(#5efeaf94a7)"><path fill="#ffffff" d="M 230.171875 327.144531 C 222.441406 328.648438 214.925781 323.589844 213.421875 315.863281 C 212.691406 312.117188 213.460938 308.3125 215.59375 305.148438 C 217.722656 301.984375 220.960938 299.84375 224.703125 299.109375 C 225.621094 298.929688 226.539062 298.84375 227.445312 298.84375 C 234.132812 298.84375 240.125 303.585938 241.457031 310.394531 C 242.960938 318.121094 237.902344 325.640625 230.171875 327.144531 Z M 221.6875 283.644531 C 213.808594 285.179688 207.007812 289.691406 202.523438 296.347656 C 198.042969 303.003906 196.417969 311.003906 197.953125 318.878906 C 200.75 333.203125 213.347656 343.167969 227.425781 343.167969 C 229.328125 343.167969 231.253906 342.988281 233.1875 342.609375 C 249.445312 339.441406 260.089844 323.632812 256.917969 307.378906 C 253.75 291.121094 237.945312 280.476562 221.6875 283.644531 " fill-opacity="1" fill-rule="nonzero"/></g></svg>